<svg width="40" height="40" viewBox="0 0 40 40" fill="none" xmlns="http://www.w3.org/2000/svg">
<rect width="40" height="40" rx="6" fill="url(#paint0_linear_1_15)"/>
<path d="M20.3209 31.352C18.6569 31.352 17.1102 31.064 15.6809 30.488C14.2515 29.8907 12.9929 29.0693 11.9049 28.024C10.8169 26.9573 9.96354 25.7307 9.34488 24.344C8.74754 22.936 8.44888 21.4213 8.44888 19.8C8.44888 18.1787 8.74754 16.6747 9.34488 15.288C9.96354 13.88 10.8062 12.6533 11.8729 11.608C12.9395 10.5413 14.1875 9.72 15.6169 9.144C17.0675 8.54667 18.6142 8.248 20.2569 8.248C22.1129 8.248 23.8622 8.62133 25.5049 9.368C27.1475 10.0933 28.5022 11.1173 29.5689 12.44L26.3369 15.416C25.5689 14.456 24.6622 13.7307 23.6169 13.24C22.5715 12.7493 21.4515 12.504 20.2569 12.504C19.2542 12.504 18.3262 12.696 17.4729 13.08C16.6195 13.4427 15.8729 13.9547 15.2329 14.616C14.5929 15.256 14.0915 16.024 13.7289 16.92C13.3875 17.7947 13.2169 18.7547 13.2169 19.8C13.2169 20.8453 13.3982 21.816 13.7609 22.712C14.1235 23.608 14.6249 24.3867 15.2649 25.048C15.9262 25.688 16.6835 26.2 17.5369 26.584C18.4115 26.9467 19.3609 27.128 20.3849 27.128C21.4515 27.128 22.4115 26.936 23.2649 26.552C24.1182 26.1467 24.8329 25.592 25.4089 24.888C26.0062 24.1627 26.4009 23.352 26.5929 22.456H19.9689V18.424H31.5529V19.832C31.5529 21.496 31.2649 23.032 30.6889 24.44C30.1342 25.8267 29.3555 27.0427 28.3529 28.088C27.3502 29.112 26.1662 29.912 24.8009 30.488C23.4355 31.064 21.9422 31.352 20.3209 31.352Z" fill="white"/>
<defs>
<linearGradient id="paint0_linear_1_15" x1="0" y1="20" x2="40" y2="20" gradientUnits="userSpaceOnUse">
<stop stop-color="#2979FF"/>
<stop offset="1" stop-color="#4C589E"/>
</linearGradient>
</defs>
</svg>
